<?xml version="1.0" encoding="UTF-8" standalone="no"?>
<!-- Created with Inkscape (http://www.inkscape.org/) -->

<svg
   width="243.41681mm"
   height="269.63959mm"
   viewBox="0 0 243.41681 269.63959"
   version="1.1"
   id="svg1"
   xmlns:inkscape="http://www.inkscape.org/namespaces/inkscape"
   xmlns:sodipodi="http://sodipodi.sourceforge.net/DTD/sodipodi-0.dtd"
   xmlns="http://www.w3.org/2000/svg"
   xmlns:svg="http://www.w3.org/2000/svg">
  <sodipodi:namedview
     id="namedview1"
     pagecolor="#505050"
     bordercolor="#eeeeee"
     borderopacity="1"
     inkscape:showpageshadow="0"
     inkscape:pageopacity="0"
     inkscape:pagecheckerboard="0"
     inkscape:deskcolor="#505050"
     inkscape:document-units="mm">
    <inkscape:page
       x="0"
       y="0"
       width="243.41681"
       height="269.63959"
       id="page2"
       margin="0"
       bleed="0" />
  </sodipodi:namedview>
  <defs
     id="defs1" />
  <g
     inkscape:label="Layer 1"
     inkscape:groupmode="layer"
     id="layer1"
     transform="translate(331.00336,-30.194106)">
    <g
       id="text2"
       style="font-weight:bold;font-size:115.171px;line-height:0.8;font-family:Helvetica;-inkscape-font-specification:'Helvetica, Bold';stroke-width:1.41586"
       aria-label="ANT&#10;HON&#10;YDO"
       inkscape:export-filename="text2.svg"
       inkscape:export-xdpi="96"
       inkscape:export-ydpi="96">
      <path
         style="text-align:center;text-anchor:middle"
         d="m -295.0968,81.931078 h 21.0322 l -10.34739,-32.616786 z m 1.06848,-51.568264 h 19.57007 l 29.35511,82.891626 h -18.78277 l -5.3424,-17.039459 h -30.53606 l -5.73606,17.039459 h -18.10794 z m 9.67257,0 z m 49.48753,0 h 18.16418 l 33.01044,57.866678 V 30.362814 h 16.13968 v 82.891626 h -17.32064 l -33.85397,-58.878923 v 58.878923 h -16.13969 z m 34.30387,-0.168707 z m 109.378702,0.168707 v 14.677554 h -24.800002 v 68.214072 h -17.43311 V 45.040368 h -24.91248 V 30.362814 Z"
         id="path7" />
      <path
         style="text-align:center;text-anchor:middle"
         d="m -327.48864,205.39124 v -82.89163 h 17.15193 v 31.60454 h 32.39184 v -31.60454 h 17.20817 v 82.89163 h -17.20817 v -37.00318 h -32.39184 v 37.00318 z m 119.95104,-12.37188 q 10.29116,0 16.30839,-7.59184 6.07348,-7.59184 6.07348,-21.59457 0,-13.94648 -6.07348,-21.53832 -6.01723,-7.64808 -16.30839,-7.64808 -10.29116,0 -16.42086,7.59184 -6.12971,7.59184 -6.12971,21.59456 0,14.00273 6.12971,21.59457 6.1297,7.59184 16.42086,7.59184 z m 39.7025,-29.18641 q 0,22.32563 -12.54059,34.19139 -9.39138,9.67257 -27.16191,9.67257 -17.77052,0 -27.16191,-9.67257 -12.59683,-11.86576 -12.59683,-34.19139 0,-22.77551 12.59683,-34.19138 9.39139,-9.67257 27.16191,-9.67257 17.77053,0 27.16191,9.67257 12.54059,11.41587 12.54059,34.19138 z M -207.5376,119.969 Z m 52.63675,2.53061 h 18.16418 l 33.01043,57.86668 v -57.86668 h 16.139689 v 82.89163 h -17.320639 l -33.85397,-58.87892 v 58.87892 h -16.13969 z m 34.30386,-0.1687 z"
         id="path8" />
      <path
         style="text-align:center;text-anchor:middle"
         d="m -276.90451,214.63641 h 19.62631 l -27.72427,51.73697 v 31.15466 h -17.32063 v -31.15466 l -28.68028,-51.73697 h 20.41361 l 17.20816,36.10341 z m -17.20816,0 z m 63.54649,14.39638 v 54.09887 h 15.97098 q 12.25941,0 17.0957,-12.0907 2.64308,-6.63583 2.64308,-15.80227 0,-12.65307 -3.99274,-19.40137 -3.93651,-6.80453 -15.74604,-6.80453 z m 18.89524,-14.39638 q 7.70431,0.11247 12.82178,1.79955 8.71655,2.86803 14.11519,10.5161 4.33016,6.18594 5.90476,13.38413 1.57461,7.19819 1.57461,13.72155 0,16.53333 -6.63583,28.00544 -8.99774,15.46486 -27.78051,15.46486 h -35.70975 v -82.89163 z m 84.12883,70.51974 q 10.29116,0 16.30839,-7.59183 6.07347,-7.59184 6.07347,-21.59457 0,-13.94648 -6.07347,-21.53832 -6.01723,-7.64808 -16.30839,-7.64808 -10.29116,0 -16.42087,7.59184 -6.1297,7.59184 -6.1297,21.59456 0,14.00273 6.1297,21.59457 6.12971,7.59183 16.42087,7.59183 z m 39.7025,-29.1864 q 0,22.32563 -12.54059,34.19139 -9.39139,9.67257 -27.16191,9.67257 -17.77053,0 -27.16191,-9.67257 -12.59683,-11.86576 -12.59683,-34.19139 0,-22.77551 12.59683,-34.19139 9.39138,-9.67256 27.16191,-9.67256 17.77052,0 27.16191,9.67256 12.54059,11.41588 12.54059,34.19139 z m -39.7025,-43.86395 z"
         id="path9" />
    </g>
  </g>
</svg>
